<svg width="118" height="118" viewBox="0 0 118 118" fill="none" xmlns="http://www.w3.org/2000/svg">
<path d="M79.5776 9.48394C79.7844 9.48265 79.9911 9.48137 80.2041 9.48004C81.3047 9.49873 82.1075 9.57146 83.0592 10.1828C83.1828 10.261 83.3063 10.3392 83.4336 10.4199C83.8146 11.0336 83.757 11.6889 83.6582 12.379C83.4461 12.8657 83.4461 12.8657 83.0592 13.1777C82.2228 13.4167 81.5701 13.3782 80.7382 13.1902C77.7466 12.5284 74.8607 13.1725 72.2775 14.775C71.7697 15.1852 71.2949 15.6087 70.8284 16.065C70.4805 16.3723 70.4805 16.3723 70.0812 16.3723C70.0279 16.4901 69.9747 16.608 69.9198 16.7295C69.6777 17.1786 69.422 17.4774 69.0704 17.8448C64.5638 22.903 62.4007 29.9813 62.658 36.6677C62.8178 38.7652 63.8469 40.3898 65.3642 41.7792C66.7759 42.9254 68.2555 43.4738 70.0812 43.3266C71.6438 42.9233 73.0121 42.335 73.9231 40.954C75.0932 38.7763 75.1268 36.4902 74.4863 34.1312C74.134 33.1547 73.6206 32.091 72.8765 31.3469C72.8684 31.0142 72.868 30.6812 72.8765 30.3486C73.0989 30.3815 73.3212 30.4145 73.5503 30.4484C76.3542 30.7403 79.0277 30.8696 81.4237 29.1467C82.8591 27.9289 84.2992 26.3196 84.5239 24.3782C84.5439 22.8287 84.3436 22.07 83.2464 20.9395C80.9158 19.4519 78.1666 19.4422 75.5002 19.8983C71.8026 20.92 69.0303 23.8616 66.9826 26.973C66.885 27.0986 66.7875 27.2242 66.687 27.3537C66.5552 27.3537 66.4234 27.3537 66.2877 27.3537C66.7565 24.0131 69.0665 21.0158 71.666 18.9803C74.7766 16.7873 78.3014 15.6627 82.1194 16.2787C84.1796 16.7591 85.7126 17.487 87.0525 19.1675C88.3135 21.2744 88.6468 23.492 88.0765 25.8882C86.9417 29.0099 84.8164 31.3023 81.8618 32.7659C80.7079 33.2804 79.4846 33.6137 78.2673 33.9425C78.2864 34.1862 78.3054 34.43 78.3251 34.6811C78.5787 38.2682 78.3331 41.431 75.8901 44.275C74.316 45.9666 72.5371 47.1715 70.1725 47.3604C67.683 47.4045 65.5749 46.582 63.742 44.874C61.3257 42.2757 60.7803 39.015 60.8274 35.6037C61.1278 27.551 65.3729 18.0406 71.2971 12.4945C73.8532 10.3827 76.2987 9.50369 79.5776 9.48394Z" fill="#951B81"/>
<path d="M55.3063 1.99662C58.2049 3.11574 60.3806 5.26982 61.7329 8.0239C62.7905 10.4132 63.1182 12.9171 63.1336 15.5081C63.135 15.6671 63.1364 15.8261 63.1379 15.9899C63.1841 22.7262 63.1841 22.7262 62.4941 25.7563C62.4544 25.9316 62.4147 26.1069 62.3739 26.2875C61.1949 31.3106 59.3525 37.0415 54.8453 40.0251C52.5525 41.3329 50.2954 41.9218 47.6653 41.4001C45.3157 40.6944 43.6277 39.1954 42.464 37.0505C41.4667 34.6479 41.4713 31.0687 42.4616 28.6647C43.2479 27.1499 44.1749 25.8187 45.3232 24.5584C45.1962 24.4202 45.1962 24.4202 45.0666 24.2792C42.6355 21.5756 40.8224 18.5714 40.9018 14.8186C41.0526 12.5026 41.8379 10.2346 43.5262 8.58545C45.5327 7.04141 47.4399 6.75698 49.9154 6.98816C52.7338 7.56853 55.3919 9.6735 57.0658 11.9547C58.9368 14.8031 59.5347 17.7946 59.5366 21.1516C59.539 21.3821 59.5415 21.6126 59.544 21.8501C59.546 23.0304 59.5092 24.0457 59.0998 25.1574C58.9681 25.1574 58.8363 25.1574 58.7005 25.1574C58.6811 24.9541 58.6811 24.9541 58.6614 24.7467C58.2476 20.5508 57.6805 16.437 54.4366 13.3976C52.623 11.9563 50.3548 10.6413 47.9687 10.7942C46.8894 10.9831 46.0884 11.2871 45.4215 12.1856C44.4555 13.8856 44.3311 15.7158 44.7367 17.6077C45.362 19.7457 46.6401 21.6705 48.6145 22.7645C50.0099 23.5033 50.0099 23.5033 51.5127 23.9594C51.5786 24.2229 51.6445 24.4865 51.7124 24.758C51.5101 24.8618 51.3078 24.9655 51.0993 25.0723C50.8294 25.2129 50.5596 25.3536 50.2898 25.4943C50.157 25.5621 50.0242 25.6299 49.8873 25.6998C47.7774 26.8065 46.3204 28.488 45.5228 30.7479C45.075 32.2949 45.2266 33.896 45.9222 35.3401C46.7428 36.6888 48.0244 37.3937 49.5075 37.8585C51.577 38.2502 53.3948 37.7965 55.1815 36.7377C55.3544 36.606 55.5274 36.4742 55.7056 36.3384C55.8662 36.2313 56.0268 36.1243 56.1923 36.014C58.8577 33.5436 60.1301 29.5554 61.0964 26.1557C61.1354 26.0199 61.1743 25.8841 61.2144 25.7442C61.7702 23.681 61.7557 21.5632 61.7703 19.442C61.7727 19.2333 61.7727 19.2333 61.7752 19.0203C61.8067 15.4116 61.2093 11.6867 58.9002 8.78511C58.7949 8.65024 58.6896 8.51538 58.5812 8.37643C57.454 7.09815 55.9992 6.46418 54.4794 5.76303C52.6278 4.90238 52.6278 4.90238 52.3113 4.39255C52.217 3.5436 52.1775 3.05013 52.5734 2.29611C53.4803 1.78994 54.2967 1.81283 55.3063 1.99662Z" fill="#951B81"/>
<path d="M69.2405 77.769C69.5197 78.0427 69.5197 78.0427 69.8816 78.467C69.9881 78.3609 70.0947 78.2549 70.2044 78.1457C71.8788 76.5582 73.5501 75.8435 75.8714 75.8714C77.9167 76.0285 79.8405 76.4846 81.2623 78.0677C82.4149 79.689 82.9199 81.1862 82.9176 83.1658C82.9189 83.3303 82.9202 83.4947 82.9216 83.6641C82.9254 84.2037 82.9262 84.7432 82.9266 85.2828C82.9279 85.6594 82.9293 86.036 82.9307 86.4125C82.933 87.1998 82.9338 87.9871 82.9336 88.7744C82.9335 89.7835 82.939 90.7925 82.9458 91.8016C82.9503 92.5784 82.9511 93.3552 82.9509 94.132C82.9514 94.5041 82.9531 94.8763 82.9562 95.2484C82.9601 95.7679 82.959 96.2872 82.9566 96.8068C82.9588 96.9604 82.9611 97.114 82.9634 97.2723C82.955 97.9779 82.9158 98.3601 82.4791 98.9271C82.0287 99.2553 81.8136 99.3452 81.2623 99.3441C81.0646 99.3507 81.0646 99.3507 80.8629 99.3574C80.225 99.1568 80.0228 98.7879 79.665 98.2335C79.5891 97.6821 79.5581 97.211 79.5655 96.6609C79.5644 96.5056 79.5633 96.3503 79.5621 96.1902C79.5603 95.8541 79.5603 95.5178 79.5619 95.1817C79.5644 94.6485 79.5621 94.1155 79.5587 93.5824C79.5533 92.6419 79.5522 91.7015 79.5525 90.761C79.5529 89.258 79.5501 87.755 79.5414 86.252C79.5394 85.7286 79.5412 85.2054 79.5431 84.682C79.5419 84.3583 79.5405 84.0347 79.539 83.711C79.5405 83.5671 79.542 83.4232 79.5436 83.2749C79.5315 82.0403 79.2926 80.9014 78.4046 79.9894C77.0859 79.192 75.7266 79.0477 74.225 79.3584C73.189 79.6894 72.6861 80.1682 72.0778 81.0626C71.6452 81.9147 71.6222 82.7062 71.6275 83.643C71.6268 83.7993 71.6261 83.9555 71.6253 84.1166C71.624 84.4547 71.6235 84.7929 71.6237 85.131C71.6239 85.6665 71.6213 86.2019 71.6179 86.7374C71.6087 88.2594 71.6038 89.7813 71.6025 91.3033C71.6015 92.2353 71.5966 93.1672 71.5894 94.0992C71.5875 94.4539 71.587 94.8086 71.5881 95.1634C71.5895 95.6595 71.586 96.1553 71.5815 96.6514C71.584 96.8705 71.584 96.8705 71.5865 97.094C71.5709 98.0574 71.371 98.5592 70.6802 99.2318C70.1018 99.3906 69.6954 99.2998 69.0829 99.2318C68.4839 98.8325 68.4839 98.8325 68.2843 98.2335C68.2634 97.7349 68.2535 97.2416 68.2528 96.7429C68.2518 96.5915 68.2507 96.4402 68.2497 96.2842C68.2476 95.9554 68.2458 95.6266 68.2445 95.2978C68.2421 94.7765 68.2382 94.2552 68.2339 93.7339C68.2216 92.2516 68.2108 90.7692 68.2041 89.2869C68.1999 88.3799 68.1929 87.4731 68.184 86.5662C68.1812 86.2214 68.1794 85.8767 68.1788 85.5319C68.1778 85.0479 68.1732 84.564 68.1678 84.08C68.1684 83.9392 68.169 83.7984 68.1696 83.6533C68.1484 82.3696 67.8346 81.3116 67.0489 80.3014C65.9753 79.4664 64.8974 79.1563 63.54 79.2079C62.5781 79.3321 61.7916 79.6388 61.0216 80.2265C60.2885 81.2133 60.2395 82.2759 60.2436 83.466C60.2421 83.7005 60.2421 83.7005 60.2405 83.9397C60.2384 84.2773 60.2373 84.6149 60.2369 84.9525C60.2362 85.4871 60.2328 86.0217 60.2288 86.5564C60.2177 88.0758 60.2116 89.5952 60.2067 91.1146C60.2035 92.0456 60.1975 92.9764 60.1898 93.9073C60.1874 94.2615 60.1863 94.6156 60.1862 94.9698C60.1862 95.4649 60.1826 95.9598 60.1781 96.4549C60.1795 96.6735 60.1795 96.6735 60.1809 96.8966C60.1673 97.8565 59.9903 98.541 59.2995 99.2318C58.908 99.2723 58.908 99.2723 58.426 99.2817C58.2679 99.2869 58.1099 99.292 57.9471 99.2973C57.5025 99.2318 57.5025 99.2318 57.1803 99.0301C56.7447 98.4047 56.8187 97.7375 56.8229 97.0019C56.8215 96.8356 56.8201 96.6693 56.8187 96.498C56.8151 95.9468 56.8158 95.3958 56.817 94.8447C56.8161 94.4609 56.815 94.0771 56.8138 93.6933C56.812 92.8874 56.8125 92.0816 56.8145 91.2758C56.8168 90.2471 56.8128 89.2184 56.8069 88.1897C56.8032 87.3961 56.8033 86.6025 56.8045 85.8089C56.8045 85.4299 56.8033 85.051 56.8008 84.672C56.7857 81.9828 56.9249 79.7048 58.9002 77.6683C59.8815 76.8625 60.8378 76.3179 62.0948 76.071C62.2227 76.0445 62.3506 76.018 62.4824 75.9907C64.9072 75.5933 67.3546 76.1836 69.2405 77.769Z" fill="#1D1D1B"/>
<path d="M28.1648 78.3422C29.9479 80.3544 30.5656 82.8495 30.5804 85.4833C30.5819 85.6857 30.5819 85.6857 30.5834 85.8922C30.5863 86.3335 30.5877 86.7749 30.5888 87.2162C30.5896 87.4437 30.5896 87.4437 30.5905 87.6758C30.5935 88.477 30.5953 89.2782 30.5962 90.0794C30.5973 90.9054 30.6021 91.7314 30.6078 92.5574C30.6115 93.1946 30.6125 93.8317 30.6128 94.4689C30.6134 94.7735 30.615 95.0781 30.6177 95.3826C30.6211 95.8084 30.6207 96.2339 30.6194 96.6597C30.6205 97.0225 30.6205 97.0225 30.6216 97.3926C30.5346 98.1532 30.2948 98.6866 29.7496 99.2318C29.3581 99.2794 29.3581 99.2794 28.8761 99.2942C28.718 99.3016 28.56 99.3091 28.3972 99.3168C27.9526 99.2318 27.9526 99.2318 27.629 98.9358C27.2296 98.2068 27.2796 97.5048 27.2951 96.6955C27.2957 96.5471 27.2963 96.3988 27.297 96.2459C27.3001 95.6938 27.3085 95.1417 27.3162 94.5897C27.3286 93.3542 27.3409 92.1188 27.3536 90.846C23.3345 90.846 19.3153 90.846 15.1743 90.846C15.2059 93.307 15.2059 93.307 15.2462 95.7679C15.2486 96.0771 15.2506 96.3863 15.2523 96.6955C15.2564 96.8552 15.2604 97.0149 15.2647 97.1795C15.2651 97.9145 15.2459 98.3386 14.795 98.934C14.3444 99.254 14.1241 99.3452 13.577 99.3441C13.3793 99.3507 13.3793 99.3507 13.1777 99.3574C12.5463 99.1588 12.3383 98.7775 11.9797 98.2335C11.8783 97.5892 11.8783 97.5892 11.8764 96.8512C11.875 96.716 11.8736 96.5807 11.8721 96.4414C11.8686 95.9954 11.8709 95.5496 11.8736 95.1036C11.8731 94.7904 11.8723 94.4772 11.8713 94.1639C11.8701 93.5065 11.8718 92.8491 11.8756 92.1917C11.8801 91.3583 11.8775 90.525 11.8727 89.6915C11.8698 89.0435 11.8708 88.3954 11.8728 87.7473C11.8733 87.4407 11.8727 87.134 11.8708 86.8274C11.8574 84.0339 12.079 81.0745 13.9763 78.8663C14.0811 78.7399 14.1858 78.6136 14.2937 78.4834C15.526 77.1236 17.1751 76.3756 18.9679 76.071C19.1053 76.0443 19.2427 76.0175 19.3843 75.9899C22.4868 75.524 25.8161 76.18 28.1648 78.3422ZM16.3723 81.0626C14.9641 83.2449 15.1743 85.1906 15.1743 87.8511C19.1935 87.8511 23.2127 87.8511 27.3536 87.8511C27.4773 83.8165 27.4773 83.8165 25.6503 80.5197C24.4054 79.3219 22.9499 79.0387 21.264 78.9911C19.2613 79.0499 17.6957 79.4891 16.3723 81.0626Z" fill="#1D1D1B"/>
<path d="M92.4301 76.2037C92.5808 76.2023 92.7316 76.201 92.8869 76.1996C93.2055 76.1976 93.5242 76.1967 93.8429 76.1968C94.3201 76.1959 94.7969 76.1887 95.2741 76.1811C98.1037 76.1602 100.676 76.5623 103.025 78.2674C103.152 78.3551 103.278 78.4429 103.408 78.5333C105.427 80.0794 106.63 82.7903 107.019 85.2555C107.077 86.0425 107.085 86.8251 107.081 87.614C107.08 87.9324 107.08 87.9324 107.078 88.2572C107.03 91.4616 106.067 94.0998 103.824 96.4366C101.162 98.7149 98.1283 99.1054 94.7415 99.0952C94.3012 99.0946 93.8612 99.0993 93.421 99.1043C91.6456 99.1123 90.3212 98.9931 88.787 98.0089C87.2674 96.3833 87.5636 94.0578 87.5719 91.9808C87.5715 91.6246 87.5709 91.2684 87.5702 90.9122C87.5693 90.1683 87.5706 89.4244 87.5734 88.6804C87.5768 87.73 87.5748 86.7797 87.5712 85.8293C87.5691 85.0947 87.5697 84.36 87.5713 83.6253C87.5717 83.275 87.5712 82.9247 87.5698 82.5744C87.5683 82.0838 87.5706 81.5933 87.5739 81.1027C87.5727 80.9601 87.5715 80.8174 87.5703 80.6704C87.5848 79.4996 87.8295 78.396 88.5725 77.464C88.6845 77.375 88.7965 77.2859 88.9118 77.1942C89.0222 77.102 89.1326 77.0099 89.2464 76.915C90.2547 76.3002 91.2741 76.2073 92.4301 76.2037ZM91.1154 79.5789C90.7549 80.2286 90.7606 80.8114 90.7654 81.5353C90.764 81.6821 90.7626 81.8289 90.7612 81.9802C90.7576 82.4647 90.7583 82.9491 90.7595 83.4336C90.7586 83.7708 90.7575 84.1079 90.7563 84.4451C90.7545 85.1514 90.755 85.8576 90.757 86.5639C90.7593 87.4689 90.7552 88.3739 90.7494 89.2789C90.7457 89.9751 90.7458 90.6711 90.7469 91.3672C90.747 91.701 90.7458 92.0347 90.7433 92.3684C90.7403 92.8349 90.7424 93.3011 90.7459 93.7677C90.7439 93.9054 90.742 94.0432 90.74 94.1851C90.7503 94.8522 90.8076 95.1887 91.2195 95.7238C91.7599 96.1222 92.0701 96.135 92.7374 96.1293C93.0564 96.1281 93.0564 96.1281 93.382 96.1269C93.6034 96.122 93.8249 96.1172 94.0531 96.1121C94.2692 96.1119 94.4852 96.1116 94.7079 96.1113C97.2926 96.0834 99.3223 95.6538 101.478 94.2029C103.405 92.2319 103.926 89.8793 103.908 87.2073C103.835 84.9154 103.149 82.7325 101.466 81.1141C99.2958 79.3555 96.8889 79.2237 94.2028 79.2033C93.9466 79.1975 93.6904 79.1917 93.4264 79.1857C93.1815 79.1841 92.9366 79.1824 92.6843 79.1807C92.4609 79.1777 92.2374 79.1748 92.0072 79.1718C91.4391 79.2127 91.4391 79.2127 91.1154 79.5789Z" fill="#1D1D1B"/>
<path d="M50.9621 78.2283C51.7646 79.0042 52.2646 79.628 52.3862 80.7631C52.3113 81.4619 52.3113 81.4619 51.9994 81.9486C51.3216 82.3831 50.9064 82.3716 50.1151 82.2606C49.5219 81.8881 49.1652 81.5288 48.7549 80.9628C47.7297 79.7912 46.2262 79.4309 44.7242 79.2657C42.6297 79.1513 40.6338 79.0955 38.934 80.4636C38.4914 81.1275 38.3807 81.4694 38.335 82.2606C38.6409 83.423 39.0626 83.818 40.0732 84.4209C40.8248 84.8075 41.603 85.0327 42.4156 85.2555C42.6758 85.3308 42.6758 85.3308 42.9413 85.4076C43.7746 85.6481 44.6104 85.8781 45.448 86.1033C48.0393 86.8111 50.5954 87.7166 52.1725 90.0302C52.9171 91.4013 52.8981 92.9224 52.7107 94.4399C52.3242 95.661 51.7013 96.6122 50.714 97.4349C50.5604 97.5634 50.5604 97.5634 50.4036 97.6946C47.9691 99.5962 44.6533 99.4102 41.7293 99.2318C39.2299 98.9203 36.5782 97.7696 34.9782 95.7752C34.4893 95.0518 34.3761 94.5178 34.5415 93.6413C34.9533 93.1421 34.9533 93.1421 35.5398 92.8426C36.3826 92.8276 36.7813 92.8947 37.3991 93.4791C37.5762 93.6644 37.7533 93.8497 37.9357 94.0406C40.2654 95.68 42.8169 96.3362 45.6531 95.9686C47.0367 95.7189 48.1821 95.348 49.1168 94.2403C49.4288 93.3042 49.413 92.4143 49.1667 91.47C48.4382 90.2316 45.7167 89.6612 44.3768 89.3016C43.7943 89.1572 43.2111 89.0156 42.6278 88.8744C40.1569 88.2628 37.3011 87.4265 35.7394 85.2555C34.8719 83.8097 34.7293 82.2385 35.0258 80.59C35.4993 78.9108 36.5297 77.8499 38.0231 76.9945C41.9031 75.0492 47.5439 75.4772 50.9621 78.2283Z" fill="#1D1D1B"/>
<path d="M34.5415 33.3435C35.186 33.7159 35.4708 33.9812 35.7644 34.6663C35.7124 36.0698 34.8856 37.191 34.0173 38.2477C33.0011 39.5097 32.6123 40.8012 32.6774 42.4211C32.9248 44.2881 33.9202 45.7184 35.3401 46.9205C38.8109 49.0979 42.7406 49.5888 46.7115 48.7237C50.3264 47.8503 53.1782 45.7706 55.9052 43.3266C56.0667 43.182 56.0667 43.182 56.2315 43.0345C56.8589 42.4708 57.4819 41.9024 58.1015 41.33C58.7404 41.9063 59.0755 42.4141 59.4024 43.2073C59.4908 43.4167 59.5791 43.6262 59.6701 43.842C59.7619 44.0631 59.8538 44.2843 59.9484 44.5121C61.9023 49.0717 64.6515 53.3295 69.4646 55.2597C72.336 56.3205 75.7149 57.0249 78.6355 55.7313C80.0625 54.9842 81.3707 53.9229 81.9681 52.3675C82.3037 50.7204 82.1315 49.1109 81.6616 47.5195C81.6015 46.9306 81.6015 46.9306 81.5992 46.3839C81.5959 46.2019 81.5925 46.02 81.5891 45.8325C81.6762 45.221 81.8228 44.9575 82.2606 44.5246C82.859 44.2993 83.4227 44.2623 84.0575 44.3249C84.8241 44.8415 85.2636 45.5018 85.5527 46.3839C86.0742 49.1231 85.5509 51.3228 84.0825 53.6716C82.5629 55.7944 80.2961 57.4391 77.7128 58.0212C73.4826 58.5494 69.616 57.721 66.0919 55.2961C64.5395 54.0867 63.229 52.728 62.1072 51.1134C62.0044 50.9658 61.9016 50.8182 61.7956 50.6662C60.2202 48.3661 58.3012 45.4052 58.3012 42.5279C58.1694 42.5279 58.0376 42.5279 57.9019 42.5279C57.8473 42.6451 57.7927 42.7622 57.7365 42.8828C55.8051 46.5461 50.6451 49.0379 46.922 50.321C44.0196 51.1352 40.6076 50.989 37.736 50.1151C37.5592 50.0618 37.3824 50.0085 37.2002 49.9536C34.2916 48.9327 32.1105 46.6608 30.7861 43.9365C29.9372 41.7599 29.6403 38.8163 30.4734 36.588C31.2745 34.9913 32.5051 32.9969 34.5415 33.3435Z" fill="#1DB5B3"/>
<path d="M72.8765 110.014C73.648 110.494 74.1835 110.94 74.4738 111.81C74.5805 113.091 74.449 113.767 73.6751 114.805C72.7369 115.466 71.9883 115.494 70.8799 115.404C70.6163 115.273 70.3527 115.141 70.0812 115.005C70.0153 115.664 69.9494 116.323 69.8815 117.002C69.5521 117.002 69.2227 117.002 68.8832 117.002C68.8832 114.696 68.8832 112.39 68.8832 110.014C69.2127 110.014 69.5421 110.014 69.8815 110.014C69.9474 110.145 70.0133 110.277 70.0812 110.413C70.2727 110.258 70.2727 110.258 70.4681 110.101C71.323 109.7 71.9799 109.734 72.8765 110.014ZM70.0812 111.611C69.7679 112.238 69.8113 112.717 69.8815 113.408C70.3321 114 70.678 114.323 71.3665 114.606C72.0703 114.606 72.4839 114.375 73.0761 114.007C73.5736 113.261 73.5669 112.894 73.4755 112.01C73.1169 111.46 72.866 111.106 72.2775 110.812C71.2562 110.699 70.8143 110.899 70.0812 111.611Z" fill="#951B81"/>
<path d="M62.1946 109.876C62.4262 109.9 62.4262 109.9 62.6626 109.924C63.0931 110.014 63.0931 110.014 63.6921 110.413C63.6921 110.281 63.6921 110.149 63.6921 110.014C64.0215 110.014 64.3509 110.014 64.6904 110.014C64.6904 111.727 64.6904 113.44 64.6904 115.205C64.1579 115.205 63.6255 115.205 63.0931 115.205C62.9613 115.271 62.8295 115.337 62.6938 115.404C61.4149 115.513 60.7353 115.378 59.6988 114.606C59.1511 113.828 58.9914 113.135 59.0289 112.201C59.1818 111.359 59.6854 110.8 60.3103 110.251C60.9709 109.846 61.4442 109.792 62.1946 109.876ZM60.2978 111.611C59.9845 112.238 60.0279 112.717 60.0982 113.408C60.5487 114 60.8946 114.323 61.5831 114.606C62.2869 114.606 62.7005 114.375 63.2927 114.007C63.7902 113.261 63.7835 112.894 63.6921 112.01C63.3335 111.46 63.0826 111.106 62.4941 110.812C61.4728 110.699 61.0309 110.899 60.2978 111.611Z" fill="#951B81"/>
<path d="M15.062 110.413C15.5736 111.012 15.5736 111.012 15.9729 112.809C14.4575 112.809 12.9421 112.809 11.3807 112.809C11.8392 113.937 11.8392 113.937 12.3416 114.294C12.9593 114.453 13.3655 114.385 13.9763 114.206C14.1122 114.066 14.2481 113.926 14.3881 113.782C14.5158 113.659 14.6434 113.535 14.7749 113.408C15.324 113.458 15.324 113.458 15.7733 113.607C15.5847 114.362 15.3861 114.597 14.75 115.067C13.72 115.594 12.8362 115.545 11.7301 115.205C10.977 114.657 10.6339 114.102 10.3824 113.208C10.3021 112.258 10.4459 111.489 11.0313 110.725C12.275 109.566 13.6158 109.571 15.062 110.413ZM11.5804 111.611C11.5804 111.743 11.5804 111.874 11.5804 112.01C12.6346 112.01 13.6888 112.01 14.7749 112.01C14.4458 111.187 14.4458 111.187 13.7766 110.812C12.7646 110.68 12.2981 110.893 11.5804 111.611Z" fill="#951B81"/>
<path d="M111.786 110.237C112.217 110.587 112.559 110.911 112.809 111.411C112.809 111.872 112.809 112.334 112.809 112.809C111.359 112.809 109.91 112.809 108.416 112.809C108.875 113.937 108.875 113.937 109.377 114.294C109.995 114.453 110.401 114.385 111.012 114.206C111.148 114.066 111.284 113.926 111.424 113.782C111.551 113.659 111.679 113.535 111.81 113.408C112.36 113.458 112.36 113.458 112.809 113.607C112.62 114.362 112.422 114.597 111.786 115.067C110.755 115.594 109.872 115.545 108.766 115.205C108.013 114.657 107.669 114.102 107.418 113.208C107.338 112.258 107.481 111.489 108.067 110.725C109.13 109.734 110.478 109.459 111.786 110.237ZM108.928 111.187C108.576 111.577 108.576 111.577 108.616 112.01C109.67 112.01 110.724 112.01 111.81 112.01C111.481 111.187 111.481 111.187 110.812 110.812C110 110.724 109.586 110.68 108.928 111.187Z" fill="#951B81"/>
<path d="M79.2446 109.959C80.0393 110.371 80.5271 110.781 80.863 111.611C80.863 112.006 80.863 112.401 80.863 112.809C79.4134 112.809 77.9639 112.809 76.4704 112.809C76.9289 113.937 76.9289 113.937 77.4313 114.294C78.049 114.453 78.4552 114.385 79.066 114.206C79.206 114.066 79.346 113.926 79.4903 113.782C79.6138 113.659 79.7374 113.535 79.8646 113.408C80.3139 113.458 80.3139 113.458 80.6633 113.607C80.5955 114.24 80.4639 114.406 79.977 114.843C79.0732 115.482 78.3597 115.537 77.269 115.404C76.3939 114.967 75.8313 114.526 75.4721 113.607C75.3363 112.606 75.3615 111.845 75.7965 110.924C76.7373 109.909 77.8897 109.439 79.2446 109.959ZM76.8822 111.299C76.4495 111.727 76.4495 111.727 76.4704 112.01C77.5905 112.01 78.7106 112.01 79.8646 112.01C79.4009 111.035 79.4009 111.035 78.8663 110.812C77.9521 110.709 77.604 110.7 76.8822 111.299Z" fill="#951B81"/>
<path d="M37.9357 110.014C38.6087 110.385 39.0418 110.841 39.4082 111.523C39.533 112.01 39.533 112.01 39.533 112.809C37.3587 112.908 37.3587 112.908 35.1404 113.008C35.6228 114.006 35.6228 114.006 36.301 114.306C37.111 114.433 37.4578 114.248 38.1354 113.807C38.2012 113.675 38.2671 113.544 38.335 113.408C38.6645 113.474 38.9939 113.54 39.3333 113.607C39.1457 114.283 38.9485 114.593 38.4224 115.067C37.5543 115.494 36.8888 115.549 35.9391 115.404C35.1129 115.056 34.582 114.589 34.1421 113.807C33.982 112.748 34.0133 111.888 34.4666 110.912C35.5047 109.819 36.5126 109.596 37.9357 110.014ZM35.1404 111.81C35.1404 111.876 35.1404 111.942 35.1404 112.01C36.1946 112.01 37.2489 112.01 38.335 112.01C38.2204 111.171 38.2204 111.171 37.5364 110.812C36.3441 110.658 35.8902 110.879 35.1404 111.81Z" fill="#951B81"/>
<path d="M50.427 109.876C50.5838 109.892 50.7405 109.908 50.902 109.924C51.313 110.014 51.313 110.014 51.7123 110.413C51.7782 110.281 51.8441 110.149 51.912 110.014C52.1756 110.014 52.4391 110.014 52.7107 110.014C52.7107 111.727 52.7107 113.44 52.7107 115.205C52.3812 115.139 52.0518 115.073 51.7123 115.005C51.5332 115.098 51.5332 115.098 51.3505 115.192C50.4595 115.625 49.5728 115.488 48.6675 115.192C47.9799 114.708 47.5959 114.192 47.3198 113.408C47.1888 112.632 47.2413 111.992 47.5569 111.261C48.3691 110.253 49.122 109.732 50.427 109.876ZM48.5178 111.611C48.2044 112.238 48.2478 112.717 48.3181 113.408C48.7687 114 49.1145 114.323 49.8031 114.606C50.5068 114.606 50.9204 114.375 51.5127 114.007C52.0102 113.261 52.0034 112.894 51.912 112.01C51.5535 111.46 51.3025 111.106 50.714 110.812C49.6927 110.699 49.2508 110.899 48.5178 111.611Z" fill="#951B81"/>
<path d="M92.8426 110.014C93.5727 110.425 94.2058 110.991 94.4399 111.81C94.5656 113.088 94.4117 113.771 93.6413 114.805C92.7035 115.466 91.9547 115.51 90.846 115.404C90.0229 115.049 89.5217 114.567 89.0491 113.807C88.7584 112.606 88.8127 111.914 89.4484 110.812C90.5205 109.794 91.4433 109.663 92.8426 110.014ZM90.0474 111.611C89.836 112.16 89.7715 112.624 89.8477 113.208C90.1813 113.888 90.6311 114.312 91.3327 114.618C92.0316 114.601 92.4531 114.373 93.0423 114.007C93.5398 113.261 93.5331 112.894 93.4416 112.01C93.0831 111.46 92.8321 111.106 92.2437 110.812C91.2355 110.7 90.7231 110.839 90.0474 111.611Z" fill="#951B81"/>
<path d="M8.38578 108.217C8.88493 108.591 8.88493 108.591 9.18442 109.015C9.18442 109.213 9.18442 109.411 9.18442 109.614C8.83502 109.751 8.83502 109.751 8.38578 109.814C8.11956 109.614 7.85335 109.415 7.58713 109.215C7.14628 109.258 7.14628 109.258 6.78849 109.415C6.83971 110.136 6.95262 110.378 7.48106 110.891C7.78065 111.13 7.78065 111.13 8.08629 111.374C9.33645 112.468 9.33645 112.468 9.47144 113.258C9.37054 114.123 9.14743 114.546 8.58544 115.205C7.89348 115.551 7.14574 115.498 6.38916 115.404C5.70272 115.018 5.4522 114.813 5.22863 114.057C5.21628 113.908 5.20392 113.76 5.19119 113.607C5.45475 113.542 5.7183 113.476 5.98984 113.408C6.10103 113.605 6.10103 113.605 6.21446 113.807C6.56849 114.27 6.56849 114.27 7.20029 114.281C7.81048 114.264 7.81048 114.264 8.18612 113.807C8.16514 113.199 7.95874 112.978 7.5497 112.522C7.15208 112.16 6.75459 111.814 6.33925 111.474C5.79018 111.012 5.79018 111.012 5.59052 110.613C5.47393 109.167 5.47393 109.167 5.96488 108.529C6.77657 107.932 7.428 107.969 8.38578 108.217Z" fill="#951B81"/>
<path d="M32.3397 110.251C32.6696 110.525 32.6696 110.525 33.1438 111.012C32.9462 111.308 32.9462 111.308 32.7445 111.611C32.1532 111.488 31.8699 111.36 31.3469 111.012C30.2349 110.889 30.2349 110.889 29.2629 111.336C28.8766 111.923 28.7656 112.305 28.7513 113.008C29.0126 113.647 29.2182 113.928 29.812 114.281C30.6606 114.479 31.3333 114.277 32.1455 114.007C32.1455 113.875 32.1455 113.743 32.1455 113.607C32.475 113.739 32.8044 113.871 33.1438 114.007C32.6604 114.663 32.306 115.1 31.5465 115.404C30.4246 115.561 29.5055 115.449 28.5516 114.805C27.9996 114.341 27.7837 114.012 27.6765 113.296C27.6396 112.388 27.6916 111.748 28.0649 110.912C29.2032 109.745 30.8816 109.371 32.3397 110.251Z" fill="#951B81"/>
<path d="M105.421 110.014C105.947 110.455 106.192 110.799 106.283 111.487C106.299 112.05 106.29 112.607 106.27 113.171C106.266 113.366 106.263 113.562 106.259 113.763C106.25 114.244 106.236 114.724 106.22 115.205C105.956 115.205 105.693 115.205 105.421 115.205C105.412 114.952 105.402 114.7 105.392 114.44C105.377 114.108 105.362 113.777 105.346 113.445C105.34 113.279 105.334 113.112 105.328 112.941C105.32 112.781 105.312 112.621 105.304 112.455C105.295 112.234 105.295 112.234 105.285 112.009C105.24 111.548 105.24 111.548 104.822 111.012C104.136 110.907 103.774 110.909 103.195 111.307C102.662 112.033 102.692 112.678 102.676 113.558C102.67 113.716 102.664 113.874 102.658 114.037C102.644 114.426 102.635 114.815 102.626 115.205C102.297 115.205 101.967 115.205 101.628 115.205C101.628 113.492 101.628 111.779 101.628 110.014C102.16 110.014 102.693 110.014 103.225 110.014C103.973 109.764 104.68 109.743 105.421 110.014Z" fill="#951B81"/>
<path d="M99.2318 110.014C99.8616 110.378 99.9962 110.51 100.23 111.212C100.246 111.522 100.252 111.833 100.25 112.144C100.249 112.322 100.248 112.5 100.248 112.684C100.246 112.869 100.244 113.055 100.243 113.246C100.242 113.433 100.241 113.621 100.24 113.815C100.238 114.278 100.234 114.741 100.23 115.205C99.9666 115.205 99.703 115.205 99.4315 115.205C99.4217 114.986 99.4119 114.767 99.4018 114.541C99.3869 114.251 99.3718 113.96 99.3566 113.67C99.3504 113.526 99.3443 113.382 99.3379 113.233C99.293 112.415 99.1964 111.762 98.8325 111.012C98.1588 110.945 98.1588 110.945 97.4349 111.012C96.8861 111.49 96.7925 111.935 96.7337 112.631C96.7192 112.94 96.7076 113.249 96.6986 113.558C96.6918 113.716 96.685 113.874 96.6779 114.037C96.6615 114.426 96.6485 114.816 96.6362 115.205C96.3068 115.205 95.9773 115.205 95.6379 115.205C95.6379 113.492 95.6379 111.779 95.6379 110.014C96.1703 110.014 96.7028 110.014 97.2352 110.014C97.99 109.762 98.4575 109.851 99.2318 110.014Z" fill="#951B81"/>
<path d="M87.4518 110.014C87.6495 110.145 87.8471 110.277 88.0508 110.413C87.919 110.676 87.7872 110.94 87.6514 111.211C87.1243 111.146 86.5972 111.08 86.0542 111.012C86.1267 111.545 86.1835 111.756 86.6157 112.093C86.7598 112.173 86.904 112.252 87.0525 112.335C87.8328 112.772 87.8328 112.772 88.0508 113.208C88.1576 114.009 88.1168 114.314 87.639 114.98C87.0525 115.404 87.0525 115.404 86.3536 115.529C85.4938 115.376 85.2035 115.069 84.6565 114.406C84.9935 114.181 84.9935 114.181 85.4552 114.007C85.9793 114.194 85.9793 114.194 86.4535 114.406C86.5853 114.34 86.717 114.274 86.8528 114.206C86.8528 113.943 86.8528 113.679 86.8528 113.408C86.5104 113.107 86.5104 113.107 86.0666 112.884C85.2728 112.444 85.2728 112.444 85.0558 112.01C84.9854 110.718 84.9854 110.718 85.4552 110.014C86.2037 109.764 86.6834 109.863 87.4518 110.014Z" fill="#951B81"/>
<path d="M42.9273 110.014C43.1249 110.145 43.3226 110.277 43.5262 110.413C43.3945 110.676 43.2627 110.94 43.1269 111.211C42.5998 111.146 42.0727 111.08 41.5296 111.012C41.6022 111.545 41.659 111.756 42.0912 112.093C42.2353 112.173 42.3794 112.252 42.5279 112.335C43.3082 112.772 43.3082 112.772 43.5262 113.208C43.6331 114.009 43.5922 114.314 43.1144 114.98C42.5279 115.404 42.5279 115.404 41.8291 115.529C40.9693 115.376 40.6789 115.069 40.132 114.406C40.4689 114.181 40.4689 114.181 40.9306 114.007C41.4547 114.194 41.4547 114.194 41.9289 114.406C42.0607 114.34 42.1925 114.274 42.3283 114.206C42.3283 113.943 42.3283 113.679 42.3283 113.408C41.9858 113.107 41.9858 113.107 41.5421 112.884C40.7483 112.444 40.7483 112.444 40.5313 112.01C40.4388 110.739 40.4388 110.739 40.8058 110.238C41.5605 109.716 42.0352 109.841 42.9273 110.014Z" fill="#951B81"/>
<path d="M19.7665 110.014C20.096 110.014 20.4254 110.014 20.7648 110.014C21.226 111.002 21.6873 111.99 22.1624 113.008C22.6896 112.02 23.2167 111.032 23.7597 110.014C24.0892 110.014 24.4186 110.014 24.758 110.014C24.4149 111.149 23.9266 112.207 23.4353 113.283C23.3514 113.468 23.2675 113.653 23.181 113.844C22.9751 114.298 22.7687 114.751 22.5618 115.205C22.3641 115.205 22.1664 115.205 21.9628 115.205C21.5955 114.415 21.2299 113.624 20.8646 112.834C20.7075 112.496 20.7075 112.496 20.5472 112.151C20.3986 111.829 20.3986 111.829 20.2469 111.5C20.1549 111.301 20.0629 111.103 19.9681 110.898C19.7665 110.413 19.7665 110.413 19.7665 110.014Z" fill="#951B81"/>
<path d="M19.5668 110.014C19.5009 110.277 19.4351 110.541 19.3672 110.812C18.9718 110.878 18.5765 110.944 18.1692 111.012C17.9618 111.896 17.9065 112.767 17.8572 113.67C17.8486 113.818 17.84 113.966 17.8311 114.118C17.8101 114.48 17.7899 114.842 17.7699 115.205C17.4404 115.205 17.111 115.205 16.7716 115.205C16.7716 113.492 16.7716 111.779 16.7716 110.014C17.2375 110.014 17.7033 110.014 18.1692 110.014C18.7016 109.747 19.0012 109.88 19.5668 110.014Z" fill="#951B81"/>
<path d="M84.6565 110.014C84.6316 110.388 84.6316 110.388 84.4569 110.812C83.8579 111.037 83.8579 111.037 83.2589 111.212C83.0356 111.658 83.0205 111.94 82.9961 112.436C82.9877 112.597 82.9793 112.758 82.9707 112.923C82.9589 113.176 82.9589 113.176 82.9469 113.433C82.934 113.687 82.934 113.687 82.9208 113.947C82.8996 114.366 82.8795 114.785 82.8596 115.205C82.5301 115.205 82.2007 115.205 81.8613 115.205C81.8613 113.492 81.8613 111.779 81.8613 110.014C82.2566 110.014 82.6519 110.014 83.0592 110.014C83.6306 109.728 84.0443 109.894 84.6565 110.014Z" fill="#951B81"/>
<path d="M57.1032 108.017C57.3668 108.017 57.6303 108.017 57.9019 108.017C57.9019 110.389 57.9019 112.761 57.9019 115.205C57.6383 115.205 57.3748 115.205 57.1032 115.205C57.1032 112.833 57.1032 110.461 57.1032 108.017Z" fill="#951B81"/>
<path d="M25.5567 110.014C25.8861 110.014 26.2156 110.014 26.555 110.014C26.555 111.727 26.555 113.44 26.555 115.205C26.2255 115.205 25.8961 115.205 25.5567 115.205C25.5567 113.492 25.5567 111.779 25.5567 110.014Z" fill="#951B81"/>
<path d="M48.7174 107.618C49.3539 107.53 49.3539 107.53 50.1151 107.618C50.5486 108.026 50.8512 108.481 51.1134 109.015C51.1134 109.147 51.1134 109.279 51.1134 109.415C50.7016 109.502 50.7016 109.502 50.1151 109.415C49.59 109.001 49.1302 108.543 48.7174 108.017C48.7174 107.885 48.7174 107.753 48.7174 107.618Z" fill="#951B81"/>
<path d="M25.5567 108.017C25.8861 108.017 26.2156 108.017 26.555 108.017C26.6313 108.348 26.6975 108.681 26.7546 109.015C26.555 109.215 26.555 109.215 26.0434 109.227C25.8024 109.221 25.8024 109.221 25.5567 109.215C25.3321 108.466 25.3321 108.466 25.5567 108.017Z" fill="#951B81"/>
</svg>
